<?xml version="1.0" encoding="utf-8"?><svg viewBox="0 0 32 32" xmlns="http://www.w3.org/2000/svg" xmlns:xlink="http://www.w3.org/1999/xlink"><style>:root>svg{display:none}:root>svg:target{display:block}</style><svg fill="none" viewBox="0 0 30 30" id="github" xmlns="http://www.w3.org/2000/svg">
    <path fill-rule="evenodd" clip-rule="evenodd" d="M15 0C6.713 0 0 6.713 0 15c0 6.637 4.294 12.244 10.256 14.231.75.131 1.031-.319 1.031-.712 0-.356-.018-1.538-.018-2.794-3.769.694-4.744-.919-5.044-1.763-.169-.43-.9-1.762-1.537-2.118-.526-.282-1.275-.975-.02-.994 1.182-.019 2.026 1.087 2.307 1.537 1.35 2.27 3.506 1.632 4.369 1.238.131-.975.525-1.631.956-2.006-3.338-.375-6.825-1.669-6.825-7.406 0-1.632.581-2.982 1.538-4.032-.15-.375-.675-1.912.15-3.975 0 0 1.256-.394 4.124 1.538 1.2-.338 2.475-.506 3.75-.506s2.55.168 3.75.506c2.87-1.95 4.126-1.538 4.126-1.538.825 2.063.3 3.6.15 3.975.956 1.05 1.537 2.382 1.537 4.032 0 5.756-3.506 7.03-6.844 7.406.544.468 1.013 1.369 1.013 2.775 0 2.006-.019 3.619-.019 4.125 0 .394.281.862 1.031.712A15.025 15.025 0 0 0 30 15c0-8.287-6.712-15-15-15Z" fill="#666"/>
</svg><svg fill="none" viewBox="0 0 20 20" id="link-chain" xmlns="http://www.w3.org/2000/svg">
    <path d="M11.287 8.713a3.64 3.64 0 0 0-5.147 0l-2.574 2.574a3.64 3.64 0 0 0 5.147 5.147L10 15.147" stroke="#000" stroke-width="1.667" stroke-linecap="round" stroke-linejoin="round"/>
    <path d="M8.713 11.287a3.64 3.64 0 0 0 5.147 0l2.574-2.574a3.64 3.64 0 1 0-5.147-5.147L10 4.853" stroke="#000" stroke-width="1.667" stroke-linecap="round" stroke-linejoin="round"/>
</svg><svg fill="none" viewBox="0 0 30 30" id="linkedin" xmlns="http://www.w3.org/2000/svg">
    <g clip-path="url(#ca)">
        <path d="M15 .6C7.047.6.6 7.047.6 15S7.047 29.4 15 29.4 29.4 22.953 29.4 15 22.953.6 15 .6Zm-3.525 20.368H8.559v-9.383h2.916v9.383ZM9.999 10.432c-.921 0-1.516-.652-1.516-1.459 0-.824.613-1.457 1.553-1.457.941 0 1.517.633 1.535 1.457 0 .807-.594 1.46-1.572 1.46Zm12.126 10.536h-2.916v-5.2c0-1.21-.423-2.033-1.477-2.033-.806 0-1.284.557-1.496 1.093-.078.19-.098.46-.098.729v5.41h-2.917v-6.39c0-1.171-.037-2.151-.076-2.994h2.533l.133 1.303h.059c.384-.611 1.325-1.514 2.898-1.514 1.918 0 3.357 1.285 3.357 4.048v5.548Z" fill="#666"/>
    </g>
    <defs>
        <clipPath id="ca">
            <path fill="#fff" d="M0 0h30v30H0z"/>
        </clipPath>
    </defs>
</svg><svg fill="none" viewBox="0 0 32 32" id="x" xmlns="http://www.w3.org/2000/svg">
    <path d="M16.875 1.875c-8.283 0-15 6.717-15 15 0 8.284 6.717 15 15 15 8.284 0 15-6.716 15-15 0-8.283-6.716-15-15-15Zm7.209 11.307c.01.157.01.321.01.482 0 4.915-3.744 10.577-10.584 10.577-2.11 0-4.065-.613-5.712-1.667.301.033.59.046.897.046a7.46 7.46 0 0 0 4.617-1.587 3.72 3.72 0 0 1-3.475-2.578c.573.084 1.088.084 1.678-.067a3.717 3.717 0 0 1-2.977-3.65v-.046a3.722 3.722 0 0 0 1.677.472 3.722 3.722 0 0 1-1.151-4.969 10.555 10.555 0 0 0 7.667 3.888c-.526-2.528 1.363-4.574 3.633-4.574 1.071 0 2.036.449 2.715 1.172a7.347 7.347 0 0 0 2.36-.894 3.702 3.702 0 0 1-1.633 2.046 7.357 7.357 0 0 0 2.143-.58 7.793 7.793 0 0 1-1.865 1.929Z" fill="#666"/>
</svg></svg>